<svg width="100" height="100" viewBox="0 0 100 100" fill="none" xmlns="http://www.w3.org/2000/svg">
    <path d="M83.3334 27.7778H16.6667C15 27.7778 13.8889 26.6667 13.8889 25C13.8889 23.3333 15 22.2222 16.6667 22.2222H83.3334C85 22.2222 86.1111 23.3333 86.1111 25C86.1111 26.6667 84.7222 27.7778 83.3334 27.7778Z"
          fill="#CD5430"/>
    <path d="M83.3334 52.7778H16.6667C15 52.7778 13.8889 51.6667 13.8889 50C13.8889 48.3333 15 47.2222 16.6667 47.2222H83.3334C85 47.2222 86.1111 48.3333 86.1111 50C86.1111 51.6667 84.7222 52.7778 83.3334 52.7778Z"
          fill="#CD5430"/>
    <path d="M83.3334 77.7778H16.6667C15 77.7778 13.8889 76.6667 13.8889 75C13.8889 73.3333 15 72.2222 16.6667 72.2222H83.3334C85 72.2222 86.1111 73.3333 86.1111 75C86.1111 76.6667 84.7222 77.7778 83.3334 77.7778Z"
          fill="#CD5430"/>
</svg>
